<svg width="491" height="407" viewBox="0 0 491 407" fill="none" xmlns="http://www.w3.org/2000/svg">
<g filter="url(#filter0_d_2001_3)">
<path d="M14 112C14 87.1472 34.1472 67 59 67H446C470.853 67 491 87.1472 491 112V362C491 386.853 470.853 407 446 407H59C34.1472 407 14 386.853 14 362V112Z" fill="#1E1E1E"/>
<g filter="url(#filter1_d_2001_3)">
<g filter="url(#filter2_d_2001_3)">
<rect x="67" y="40" width="371" height="219" rx="10" fill="#333333"/>
</g>
<path d="M296 40C296 50.6087 291.47 60.7828 283.406 68.2843C275.342 75.7857 264.404 80 253 80C241.596 80 230.658 75.7857 222.594 68.2843C214.53 60.7828 210 50.6087 210 40L253 40H296Z" fill="#B198ED"/>
<path d="M99.46 102V98.85L108.79 83.07H99.64V80.1H112.24V83.25L102.91 99.03H112.54V102H99.46ZM123.988 102.3C123.188 102.3 122.548 102.07 122.068 101.61C121.588 101.13 121.348 100.49 121.348 99.69C121.348 98.87 121.588 98.22 122.068 97.74C122.548 97.24 123.188 96.99 123.988 96.99C124.808 96.99 125.448 97.24 125.908 97.74C126.388 98.22 126.628 98.87 126.628 99.69C126.628 100.49 126.388 101.13 125.908 101.61C125.448 102.07 124.808 102.3 123.988 102.3Z" fill="#B198ED"/>
<path d="M97.925 150V148.25L106.025 136.7H98.325V133.9H110.425V135.95L102.4 147.4H110.55V150H97.925ZM119.078 150.25C117.028 150.25 115.403 149.742 114.203 148.725C113.003 147.692 112.403 146.133 112.403 144.05C112.403 142.167 112.903 140.675 113.903 139.575C114.919 138.458 116.428 137.9 118.428 137.9C120.261 137.9 121.661 138.383 122.628 139.35C123.611 140.3 124.103 141.55 124.103 143.1V145.25H115.528C115.711 146.2 116.144 146.85 116.828 147.2C117.528 147.55 118.511 147.725 119.778 147.725C120.411 147.725 121.053 147.667 121.703 147.55C122.369 147.433 122.936 147.283 123.403 147.1V149.5C122.853 149.75 122.211 149.933 121.478 150.05C120.744 150.183 119.944 150.25 119.078 150.25ZM115.528 143.175H121.153V142.525C121.153 141.842 120.953 141.308 120.553 140.925C120.153 140.525 119.478 140.325 118.528 140.325C117.411 140.325 116.628 140.55 116.178 141C115.744 141.45 115.528 142.175 115.528 143.175ZM126.452 150V138.15H129.577L129.702 139.275C130.186 138.908 130.794 138.592 131.527 138.325C132.277 138.042 133.061 137.9 133.877 137.9C135.444 137.9 136.586 138.267 137.302 139C138.019 139.733 138.377 140.867 138.377 142.4V150H135.002V142.575C135.002 141.775 134.836 141.208 134.502 140.875C134.186 140.542 133.586 140.375 132.702 140.375C132.186 140.375 131.661 140.492 131.127 140.725C130.611 140.958 130.177 141.25 129.827 141.6V150H126.452ZM141.95 135.975V133.325H145.625V135.975H141.95ZM142.225 150V140.65H140.45L140.75 138.15H145.6V150H142.225ZM153.174 150.25C151.807 150.25 150.79 149.892 150.124 149.175C149.474 148.458 149.149 147.483 149.149 146.25V140.75H147.474V138.15H149.149V135.6L152.524 134.6V138.15H155.524L155.324 140.75H152.524V146.025C152.524 146.675 152.674 147.125 152.974 147.375C153.274 147.608 153.74 147.725 154.374 147.725C154.84 147.725 155.324 147.642 155.824 147.475V149.8C155.457 149.95 155.057 150.058 154.624 150.125C154.19 150.208 153.707 150.25 153.174 150.25ZM157.556 150V133.15H160.931V139.15C161.414 138.783 162.006 138.483 162.706 138.25C163.406 138.017 164.164 137.9 164.981 137.9C166.548 137.9 167.689 138.267 168.406 139C169.123 139.733 169.481 140.867 169.481 142.4V150H166.106V142.575C166.106 141.775 165.939 141.208 165.606 140.875C165.289 140.542 164.689 140.375 163.806 140.375C163.289 140.375 162.764 140.492 162.231 140.725C161.714 140.958 161.281 141.25 160.931 141.6V150H157.556ZM177.722 150V133.9H185.872C187.489 133.9 188.689 134.283 189.472 135.05C190.272 135.8 190.672 136.867 190.672 138.25C190.672 139.117 190.505 139.842 190.172 140.425C189.839 140.992 189.389 141.433 188.822 141.75C189.572 141.983 190.164 142.375 190.597 142.925C191.047 143.458 191.272 144.25 191.272 145.3C191.272 146.85 190.83 148.025 189.947 148.825C189.08 149.608 187.822 150 186.172 150H177.722ZM181.097 140.575H185.247C186.064 140.575 186.647 140.4 186.997 140.05C187.347 139.683 187.522 139.175 187.522 138.525C187.522 137.808 187.339 137.275 186.972 136.925C186.622 136.575 185.964 136.4 184.997 136.4H181.097V140.575ZM181.097 147.525H185.372C186.222 147.525 186.847 147.35 187.247 147C187.647 146.65 187.847 146.033 187.847 145.15C187.847 144.433 187.647 143.9 187.247 143.55C186.864 143.2 186.164 143.025 185.147 143.025H181.097V147.525ZM197.34 150.25C196.59 150.25 195.89 150.117 195.24 149.85C194.607 149.567 194.09 149.158 193.69 148.625C193.307 148.075 193.115 147.392 193.115 146.575C193.115 145.408 193.524 144.475 194.34 143.775C195.174 143.075 196.399 142.725 198.015 142.725H201.515V142.4C201.515 141.667 201.307 141.15 200.89 140.85C200.49 140.55 199.674 140.4 198.44 140.4C197.09 140.4 195.79 140.608 194.54 141.025V138.65C195.09 138.433 195.757 138.258 196.54 138.125C197.34 137.975 198.207 137.9 199.14 137.9C200.924 137.9 202.299 138.267 203.265 139C204.249 139.717 204.74 140.875 204.74 142.475V150H201.815L201.64 148.925C201.174 149.342 200.599 149.667 199.915 149.9C199.232 150.133 198.374 150.25 197.34 150.25ZM198.265 148.025C199.015 148.025 199.665 147.9 200.215 147.65C200.765 147.4 201.199 147.083 201.515 146.7V144.825H198.09C196.774 144.825 196.115 145.367 196.115 146.45C196.115 147.5 196.832 148.025 198.265 148.025ZM207.458 150V138.15H210.583L210.708 139.275C211.192 138.908 211.8 138.592 212.533 138.325C213.283 138.042 214.067 137.9 214.883 137.9C216.45 137.9 217.592 138.267 218.308 139C219.025 139.733 219.383 140.867 219.383 142.4V150H216.008V142.575C216.008 141.775 215.842 141.208 215.508 140.875C215.192 140.542 214.592 140.375 213.708 140.375C213.192 140.375 212.667 140.492 212.133 140.725C211.617 140.958 211.183 141.25 210.833 141.6V150H207.458ZM222.131 150V133.15H225.506V142.425L229.931 138.15H233.781L229.006 143L234.056 150H230.481L226.881 144.775L225.506 146.1V150H222.131ZM235.7 135.975V133.325H239.375V135.975H235.7ZM235.975 150V140.65H234.2L234.5 138.15H239.35V150H235.975ZM242.224 150V138.15H245.349L245.474 139.275C245.957 138.908 246.565 138.592 247.299 138.325C248.049 138.042 248.832 137.9 249.649 137.9C251.215 137.9 252.357 138.267 253.074 139C253.79 139.733 254.149 140.867 254.149 142.4V150H250.774V142.575C250.774 141.775 250.607 141.208 250.274 140.875C249.957 140.542 249.357 140.375 248.474 140.375C247.957 140.375 247.432 140.492 246.899 140.725C246.382 140.958 245.949 141.25 245.599 141.6V150H242.224ZM261.897 154.4C261.013 154.4 260.105 154.342 259.172 154.225C258.255 154.108 257.48 153.942 256.847 153.725V151.2C257.513 151.417 258.297 151.583 259.197 151.7C260.097 151.833 260.938 151.9 261.722 151.9C262.872 151.9 263.705 151.833 264.222 151.7C264.738 151.583 264.997 151.367 264.997 151.05C264.997 150.783 264.88 150.6 264.647 150.5C264.43 150.4 263.963 150.35 263.247 150.35H260.022C257.905 150.35 256.847 149.567 256.847 148C256.847 147.517 256.98 147.075 257.247 146.675C257.513 146.275 257.938 145.958 258.522 145.725C257.172 145.042 256.497 143.892 256.497 142.275C256.497 140.742 256.972 139.633 257.922 138.95C258.872 138.25 260.28 137.9 262.147 137.9C262.53 137.9 262.947 137.933 263.397 138C263.863 138.05 264.213 138.1 264.447 138.15H268.897L268.822 140.275H266.947C267.463 140.758 267.722 141.433 267.722 142.3C267.722 143.517 267.338 144.492 266.572 145.225C265.805 145.942 264.672 146.3 263.172 146.3C262.905 146.3 262.647 146.292 262.397 146.275C262.163 146.242 261.922 146.208 261.672 146.175C261.172 146.242 260.747 146.358 260.397 146.525C260.063 146.692 259.897 146.917 259.897 147.2C259.897 147.583 260.238 147.775 260.922 147.775H264.272C265.472 147.775 266.397 148.05 267.047 148.6C267.697 149.133 268.022 149.917 268.022 150.95C268.022 152.117 267.497 152.983 266.447 153.55C265.397 154.117 263.88 154.4 261.897 154.4ZM262.172 144.4C263.172 144.4 263.863 144.233 264.247 143.9C264.647 143.55 264.847 142.967 264.847 142.15C264.847 141.333 264.647 140.742 264.247 140.375C263.863 140.008 263.172 139.825 262.172 139.825C261.222 139.825 260.538 140.008 260.122 140.375C259.705 140.725 259.497 141.317 259.497 142.15C259.497 142.917 259.688 143.483 260.072 143.85C260.472 144.217 261.172 144.4 262.172 144.4Z" fill="#B198ED"/>
<circle cx="370.5" cy="111.5" r="40.5" fill="#444444"/>
<path d="M371.473 75L383.373 99.0178L407.231 112.622L381.57 126.278L369.758 148.238L356.625 124.628L334 110.617L358.427 97.368L371.473 75Z" fill="#B198ED"/>
<g filter="url(#filter3_b_2001_3)">
<path d="M281.74 150.16C280.553 150.16 279.96 149.34 279.96 147.7C279.96 146.847 280.127 145.947 280.46 145C280.767 144.093 281.12 143.44 281.52 143.04C281.773 142.787 281.98 142.66 282.14 142.66C282.313 142.66 282.447 142.827 282.54 143.16C282.633 143.48 282.72 143.813 282.8 144.16C283.227 145.693 283.907 146.913 284.84 147.82C286.013 146.727 287.253 145.233 288.56 143.34L287.72 143.24C287.373 143.16 287.2 143.027 287.2 142.84C287.2 142.613 287.36 142.52 287.68 142.56C287.827 142.587 288.007 142.607 288.22 142.62C288.447 142.633 288.707 142.647 289 142.66C289.333 142.167 289.613 141.727 289.84 141.34C290.08 140.953 290.267 140.613 290.4 140.32C290.653 139.747 291.027 139.22 291.52 138.74C291.96 138.34 292.313 138.14 292.58 138.14C292.727 138.14 292.8 138.22 292.8 138.38C292.8 138.647 292.607 139.073 292.22 139.66C291.913 140.153 291.58 140.653 291.22 141.16C290.86 141.653 290.487 142.16 290.1 142.68C290.82 142.64 291.54 142.547 292.26 142.4C292.98 142.253 293.647 142.047 294.26 141.78C294.873 141.5 295.373 141.147 295.76 140.72C296.16 140.293 296.387 139.773 296.44 139.16C296.467 138.773 296.38 138.407 296.18 138.06C295.98 137.713 295.687 137.393 295.3 137.1C294.433 136.407 293.233 135.993 291.7 135.86C291.327 135.82 290.933 135.8 290.52 135.8C288.453 135.8 286.56 136.22 284.84 137.06C283.133 137.887 282.28 138.76 282.28 139.68C282.28 140.187 282.613 140.633 283.28 141.02C283.547 141.127 283.68 141.207 283.68 141.26C283.68 141.327 283.573 141.36 283.36 141.36C282.973 141.36 282.66 141.313 282.42 141.22C281.393 140.713 280.88 140.107 280.88 139.4C280.88 138.4 281.753 137.487 283.5 136.66C285.353 135.793 287.507 135.36 289.96 135.36C290.413 135.36 290.96 135.387 291.6 135.44C292.24 135.48 292.9 135.567 293.58 135.7C294.26 135.833 294.893 136.04 295.48 136.32C296.08 136.587 296.567 136.947 296.94 137.4C297.313 137.853 297.5 138.427 297.5 139.12C297.5 139.667 297.34 140.153 297.02 140.58C296.713 140.993 296.3 141.353 295.78 141.66C295.273 141.967 294.707 142.227 294.08 142.44C293.467 142.64 292.847 142.8 292.22 142.92C291.607 143.027 291.047 143.093 290.54 143.12C291.207 143.16 291.913 143.213 292.66 143.28C293.407 143.347 294.107 143.46 294.76 143.62C295.427 143.767 295.967 143.987 296.38 144.28C296.807 144.573 297.02 144.973 297.02 145.48C297.02 146.013 296.887 146.533 296.62 147.04C296.367 147.547 295.953 148.033 295.38 148.5C294.033 149.607 292.247 150.16 290.02 150.16C289.553 150.16 289.067 150.133 288.56 150.08C288.067 150.027 287.553 149.947 287.02 149.84C286.167 149.653 285.36 149.227 284.6 148.56C283.387 149.627 282.433 150.16 281.74 150.16ZM289.82 149.6C291.553 149.6 293.027 149.14 294.24 148.22C295.28 147.42 295.8 146.62 295.8 145.82C295.8 145.367 295.613 144.987 295.24 144.68C294.88 144.373 294.42 144.133 293.86 143.96C293.313 143.787 292.74 143.66 292.14 143.58C291.553 143.5 291.02 143.453 290.54 143.44C290.06 143.427 289.727 143.427 289.54 143.44C289.073 144.053 288.473 144.747 287.74 145.52C287.007 146.293 286.133 147.147 285.12 148.08C285.773 148.68 286.507 149.08 287.32 149.28C288.16 149.493 288.993 149.6 289.82 149.6ZM281.86 149.54C282.527 149.54 283.347 149.12 284.32 148.28C283.227 147.307 282.467 146.26 282.04 145.14C281.96 144.94 281.873 144.84 281.78 144.84C281.62 144.84 281.427 145.113 281.2 145.66C281.027 146.113 280.887 146.62 280.78 147.18C280.74 147.393 280.72 147.613 280.72 147.84C280.72 148.973 281.1 149.54 281.86 149.54ZM299.547 149.38C298.601 149.18 298.127 148.74 298.127 148.06C298.127 147.66 298.254 147.08 298.507 146.32C298.694 145.747 298.947 145.093 299.267 144.36C299.601 143.613 300.014 142.787 300.507 141.88C301.694 139.653 302.594 138.493 303.207 138.4C303.261 138.387 303.347 138.38 303.467 138.38C304.121 138.38 304.447 138.687 304.447 139.3C304.447 140.14 303.741 141.333 302.327 142.88C301.541 143.76 300.674 144.54 299.727 145.22C299.167 146.553 298.887 147.533 298.887 148.16C298.887 148.573 299.014 148.82 299.267 148.9C299.467 148.953 299.934 148.713 300.667 148.18C301.507 147.567 302.227 146.82 302.827 145.94C302.921 145.807 303.007 145.74 303.087 145.74C303.141 145.74 303.167 145.767 303.167 145.82C303.167 145.873 303.134 145.953 303.067 146.06C302.561 146.873 301.901 147.647 301.087 148.38C300.301 149.1 299.787 149.433 299.547 149.38ZM299.947 144.68C300.427 144.32 300.827 143.96 301.147 143.6L302.327 142.2C303.421 140.907 303.967 139.953 303.967 139.34C303.967 139.22 303.901 139.16 303.767 139.16C303.541 139.16 303.181 139.487 302.687 140.14C302.541 140.353 302.387 140.56 302.227 140.76C302.067 140.96 301.907 141.167 301.747 141.38C301.547 141.673 301.361 141.96 301.187 142.24C301.027 142.52 300.874 142.807 300.727 143.1C300.687 143.153 300.601 143.313 300.467 143.58C300.347 143.847 300.174 144.213 299.947 144.68ZM306.69 149.22C306.423 149.22 306.177 149.133 305.95 148.96C305.737 148.787 305.61 148.62 305.57 148.46C305.53 148.273 305.777 147.607 306.31 146.46L305.85 147.12C305.65 147.413 305.45 147.673 305.25 147.9C305.05 148.127 304.863 148.327 304.69 148.5C304.183 148.98 303.757 149.18 303.41 149.1C302.61 148.913 302.21 148.46 302.21 147.74C302.21 147.167 302.483 146.433 303.03 145.54C303.203 145.273 303.423 145.007 303.69 144.74C303.957 144.473 304.263 144.213 304.61 143.96C305.503 143.307 306.363 142.98 307.19 142.98C307.697 142.98 308.177 143.113 308.63 143.38C308.777 143.487 308.85 143.6 308.85 143.72C308.85 143.813 308.823 143.86 308.77 143.86C308.757 143.86 308.743 143.853 308.73 143.84C308.45 143.533 308.077 143.38 307.61 143.38C307.063 143.38 306.47 143.587 305.83 144C305.19 144.413 304.617 144.967 304.11 145.66C303.39 146.66 303.03 147.473 303.03 148.1C303.03 148.46 303.157 148.687 303.41 148.78C303.73 148.913 304.41 148.32 305.45 147C305.877 146.48 306.23 146.013 306.51 145.6C306.803 145.187 307.037 144.833 307.21 144.54C307.29 144.393 307.437 144.32 307.65 144.32C308.05 144.32 308.25 144.44 308.25 144.68C308.25 144.72 308.243 144.747 308.23 144.76C307.07 146.6 306.49 147.847 306.49 148.5C306.49 148.66 306.537 148.747 306.63 148.76C306.91 148.84 307.377 148.633 308.03 148.14C308.817 147.553 309.557 146.773 310.25 145.8C310.397 145.6 310.53 145.5 310.65 145.5C310.69 145.5 310.71 145.513 310.71 145.54C310.71 145.607 310.65 145.733 310.53 145.92C310.25 146.36 309.937 146.773 309.59 147.16C309.257 147.547 308.883 147.907 308.47 148.24C307.883 148.733 307.403 149.04 307.03 149.16C306.937 149.2 306.823 149.22 306.69 149.22ZM311.277 149.16C310.997 149.16 310.71 149.093 310.417 148.96C310.137 148.827 309.897 148.627 309.697 148.36C309.497 148.08 309.397 147.747 309.397 147.36C309.397 146.827 309.597 146.22 309.997 145.54C310.397 144.86 310.924 144.26 311.577 143.74C311.99 143.407 312.337 143.18 312.617 143.06C313.017 142.887 313.397 142.8 313.757 142.8C314.21 142.8 314.564 142.947 314.817 143.24C314.95 143.373 315.017 143.513 315.017 143.66C315.017 143.9 314.904 144.02 314.677 144.02C314.517 144.02 314.397 143.92 314.317 143.72C314.224 143.44 314.024 143.3 313.717 143.3C313.344 143.3 312.924 143.507 312.457 143.92C311.937 144.333 311.464 144.9 311.037 145.62C310.57 146.393 310.337 147.073 310.337 147.66C310.337 148.233 310.51 148.593 310.857 148.74C310.977 148.793 311.13 148.82 311.317 148.82C311.957 148.82 312.684 148.553 313.497 148.02C314.39 147.447 315.157 146.707 315.797 145.8C315.944 145.6 316.077 145.5 316.197 145.5C316.237 145.5 316.257 145.513 316.257 145.54C316.257 145.607 316.197 145.733 316.077 145.92C315.464 146.867 314.604 147.68 313.497 148.36C312.99 148.667 312.584 148.88 312.277 149C311.984 149.107 311.65 149.16 311.277 149.16ZM320.521 150.72C320.161 150.72 319.815 150.593 319.481 150.34C318.481 149.553 317.708 148.08 317.161 145.92C316.348 146.853 315.588 147.913 314.881 149.1C314.855 149.127 314.781 149.14 314.661 149.14C314.075 149.14 313.808 149.06 313.861 148.9C314.128 148.18 314.435 147.427 314.781 146.64C315.141 145.84 315.541 145.013 315.981 144.16C317.448 141.293 318.561 139.58 319.321 139.02C319.481 138.9 319.701 138.84 319.981 138.84C320.448 138.84 320.681 138.933 320.681 139.12C320.681 139.16 320.641 139.213 320.561 139.28C318.681 140.68 317.095 143.12 315.801 146.6L317.041 145.4C316.988 145.213 316.941 145.033 316.901 144.86C316.875 144.687 316.861 144.52 316.861 144.36C316.861 144.227 316.915 144.113 317.021 144.02C317.128 143.913 317.241 143.86 317.361 143.86C317.455 143.86 317.535 143.913 317.601 144.02C317.668 144.14 317.848 144.227 318.141 144.28C318.555 143.893 318.928 143.573 319.261 143.32C319.595 143.053 319.895 142.853 320.161 142.72C320.628 142.48 320.995 142.36 321.261 142.36C321.635 142.36 321.821 142.593 321.821 143.06C321.821 143.447 321.595 143.8 321.141 144.12C320.688 144.44 320.155 144.653 319.541 144.76C319.328 144.8 319.088 144.82 318.821 144.82C318.728 144.82 318.635 144.82 318.541 144.82C318.461 144.807 318.368 144.793 318.261 144.78L318.001 145.02C318.108 145.647 318.208 146.193 318.301 146.66C318.395 147.113 318.488 147.487 318.581 147.78C318.928 148.927 319.381 149.713 319.941 150.14C320.155 150.313 320.401 150.4 320.681 150.4C321.228 150.4 321.608 150.18 321.821 149.74C321.875 149.607 321.948 149.527 322.041 149.5C322.121 149.46 322.161 149.48 322.161 149.56C322.161 149.613 322.141 149.673 322.101 149.74C321.768 150.393 321.241 150.72 320.521 150.72ZM318.761 144.34C318.895 144.34 319.028 144.32 319.161 144.28C319.388 144.213 319.615 144.12 319.841 144C320.068 143.88 320.295 143.747 320.521 143.6C320.975 143.307 321.201 143.087 321.201 142.94C321.201 142.9 321.181 142.88 321.141 142.88C320.848 142.88 320.075 143.347 318.821 144.28L318.761 144.34Z" fill="#1E1E1E"/>
</g>
<path d="M133.675 196V182.3L131.075 182.75V180.475L136.375 179.65V196H133.675ZM139.058 196V194.65C139.492 193.633 140.092 192.717 140.858 191.9C141.642 191.083 142.475 190.292 143.358 189.525C144.025 188.942 144.575 188.45 145.008 188.05C145.458 187.633 145.808 187.258 146.058 186.925C146.308 186.592 146.483 186.25 146.583 185.9C146.683 185.533 146.733 185.108 146.733 184.625C146.733 183.758 146.483 183.1 145.983 182.65C145.483 182.2 144.65 181.975 143.483 181.975C142.85 181.975 142.2 182.042 141.533 182.175C140.883 182.308 140.258 182.492 139.658 182.725V180.325C140.242 180.125 140.933 179.967 141.733 179.85C142.533 179.717 143.292 179.65 144.008 179.65C145.808 179.65 147.167 180.092 148.083 180.975C149 181.858 149.458 183.067 149.458 184.6C149.458 185.367 149.325 186.05 149.058 186.65C148.792 187.233 148.425 187.792 147.958 188.325C147.492 188.842 146.95 189.375 146.333 189.925C145.567 190.592 144.842 191.242 144.158 191.875C143.492 192.492 142.95 193.167 142.533 193.9H149.633V196H139.058ZM156.353 196.25C155.87 196.25 155.336 196.217 154.753 196.15C154.17 196.1 153.611 196.017 153.078 195.9C152.561 195.783 152.128 195.658 151.778 195.525V193.15C152.445 193.417 153.128 193.617 153.828 193.75C154.545 193.867 155.261 193.925 155.978 193.925C157.278 193.925 158.245 193.733 158.878 193.35C159.511 192.967 159.828 192.292 159.828 191.325C159.828 190.458 159.536 189.833 158.953 189.45C158.386 189.067 157.57 188.875 156.503 188.875H154.078L154.303 186.85H156.328C158.445 186.85 159.503 186.017 159.503 184.35C159.503 183.533 159.22 182.933 158.653 182.55C158.103 182.167 157.211 181.975 155.978 181.975C155.295 181.975 154.603 182.042 153.903 182.175C153.22 182.308 152.611 182.492 152.078 182.725V180.4C152.578 180.2 153.228 180.025 154.028 179.875C154.828 179.725 155.62 179.65 156.403 179.65C158.37 179.65 159.828 180.067 160.778 180.9C161.745 181.733 162.228 182.8 162.228 184.1C162.228 184.9 162.028 185.65 161.628 186.35C161.245 187.05 160.636 187.55 159.803 187.85C160.77 188.1 161.47 188.55 161.903 189.2C162.353 189.85 162.578 190.617 162.578 191.5C162.578 193.117 162.011 194.317 160.878 195.1C159.745 195.867 158.236 196.25 156.353 196.25ZM172.292 196V192.475H164.242V190.55L172.617 179.9H174.992V190.275H176.642V192.475H174.992V196H172.292ZM166.892 190.35H172.717V183L166.892 190.35ZM194.39 196.25C193.673 196.25 192.89 196.192 192.04 196.075C191.19 195.958 190.481 195.775 189.915 195.525V193.15C190.498 193.4 191.165 193.592 191.915 193.725C192.665 193.858 193.373 193.925 194.04 193.925C195.323 193.925 196.265 193.708 196.865 193.275C197.481 192.825 197.79 192.092 197.79 191.075C197.79 190.142 197.573 189.45 197.14 189C196.706 188.55 195.856 188.325 194.59 188.325H189.84V186.675L190.265 179.9H199.415L199.19 182H192.565L192.29 186.225H195.015C196.931 186.225 198.331 186.633 199.215 187.45C200.098 188.267 200.54 189.492 200.54 191.125C200.54 192.708 200.023 193.958 198.99 194.875C197.956 195.792 196.423 196.25 194.39 196.25ZM208.806 196.25C206.789 196.25 205.264 195.75 204.231 194.75C203.214 193.75 202.706 192.175 202.706 190.025V186.4C202.706 185.067 202.981 183.892 203.531 182.875C204.081 181.858 204.864 181.067 205.881 180.5C206.898 179.933 208.106 179.65 209.506 179.65C210.323 179.65 211.031 179.7 211.631 179.8C212.248 179.9 212.814 180.042 213.331 180.225V182.55C212.814 182.367 212.256 182.225 211.656 182.125C211.073 182.025 210.414 181.975 209.681 181.975C208.181 181.975 207.073 182.333 206.356 183.05C205.639 183.75 205.281 184.692 205.281 185.875V186.875C205.864 186.442 206.531 186.125 207.281 185.925C208.048 185.708 208.739 185.6 209.356 185.6C211.239 185.6 212.631 186.058 213.531 186.975C214.431 187.892 214.881 189.192 214.881 190.875C214.881 192.475 214.389 193.775 213.406 194.775C212.423 195.758 210.889 196.25 208.806 196.25ZM208.831 194.2C210.031 194.2 210.931 193.908 211.531 193.325C212.131 192.742 212.431 191.958 212.431 190.975C212.431 189.942 212.181 189.142 211.681 188.575C211.198 187.992 210.289 187.7 208.956 187.7C208.289 187.7 207.631 187.817 206.981 188.05C206.348 188.267 205.781 188.558 205.281 188.925V190.65C205.281 193.017 206.464 194.2 208.831 194.2ZM218.712 196L224.637 182H216.787V179.9H227.562V181.65L221.487 196H218.712ZM235.788 196.25C231.588 196.25 229.488 194.717 229.488 191.65C229.488 190.733 229.73 189.917 230.213 189.2C230.713 188.483 231.421 187.975 232.338 187.675C231.505 187.358 230.896 186.892 230.513 186.275C230.13 185.642 229.938 184.967 229.938 184.25C229.938 182.867 230.413 181.758 231.363 180.925C232.33 180.075 233.805 179.65 235.788 179.65C237.821 179.65 239.305 180.075 240.238 180.925C241.171 181.758 241.638 182.867 241.638 184.25C241.638 185.017 241.446 185.733 241.063 186.4C240.696 187.05 240.046 187.55 239.113 187.9C240.146 188.2 240.896 188.667 241.363 189.3C241.83 189.917 242.063 190.7 242.063 191.65C242.063 194.717 239.971 196.25 235.788 196.25ZM236.463 187.05C237.38 186.817 238.046 186.5 238.463 186.1C238.896 185.7 239.113 185.1 239.113 184.3C239.113 182.633 238.005 181.8 235.788 181.8C234.705 181.8 233.88 182 233.313 182.4C232.746 182.8 232.463 183.433 232.463 184.3C232.463 185.617 233.205 186.417 234.688 186.7L236.463 187.05ZM235.788 194.125C237.038 194.125 237.971 193.925 238.588 193.525C239.221 193.108 239.538 192.467 239.538 191.6C239.538 190.817 239.313 190.25 238.863 189.9C238.43 189.533 237.755 189.258 236.838 189.075L234.788 188.65C233.938 188.833 233.263 189.142 232.763 189.575C232.263 189.992 232.013 190.65 232.013 191.55C232.013 192.45 232.33 193.108 232.963 193.525C233.613 193.925 234.555 194.125 235.788 194.125ZM261.133 196.25C260.316 196.25 259.608 196.2 259.008 196.1C258.408 196 257.841 195.867 257.308 195.7V193.35C257.824 193.55 258.374 193.7 258.958 193.8C259.558 193.9 260.224 193.95 260.958 193.95C262.458 193.95 263.566 193.592 264.283 192.875C264.999 192.158 265.358 191.208 265.358 190.025V189.025C264.774 189.442 264.108 189.758 263.358 189.975C262.608 190.192 261.916 190.3 261.283 190.3C259.416 190.3 258.024 189.842 257.108 188.925C256.208 188.008 255.758 186.708 255.758 185.025C255.758 183.442 256.249 182.15 257.233 181.15C258.216 180.15 259.749 179.65 261.833 179.65C263.849 179.65 265.366 180.158 266.383 181.175C267.416 182.175 267.933 183.742 267.933 185.875V189.5C267.933 190.833 267.658 192.008 267.108 193.025C266.558 194.042 265.774 194.833 264.758 195.4C263.741 195.967 262.533 196.25 261.133 196.25ZM261.683 188.225C262.366 188.225 263.024 188.108 263.658 187.875C264.291 187.642 264.858 187.35 265.358 187V185.25C265.358 182.9 264.174 181.725 261.808 181.725C260.608 181.725 259.708 182.017 259.108 182.6C258.508 183.183 258.208 183.967 258.208 184.95C258.208 185.967 258.449 186.767 258.933 187.35C259.433 187.933 260.349 188.225 261.683 188.225ZM277.164 196.45C275.464 196.45 274.097 196.125 273.064 195.475C272.03 194.808 271.272 193.858 270.789 192.625C270.322 191.375 270.089 189.883 270.089 188.15C270.089 186.35 270.314 184.817 270.764 183.55C271.23 182.283 271.98 181.317 273.014 180.65C274.047 179.983 275.43 179.65 277.164 179.65C278.897 179.65 280.272 179.983 281.289 180.65C282.322 181.317 283.064 182.283 283.514 183.55C283.98 184.817 284.214 186.35 284.214 188.15C284.214 189.883 283.98 191.375 283.514 192.625C283.047 193.858 282.297 194.808 281.264 195.475C280.23 196.125 278.864 196.45 277.164 196.45ZM277.164 194.125C278.764 194.125 279.88 193.6 280.514 192.55C281.147 191.483 281.464 190.017 281.464 188.15C281.464 186.167 281.155 184.642 280.539 183.575C279.922 182.508 278.797 181.975 277.164 181.975C275.53 181.975 274.397 182.508 273.764 183.575C273.147 184.642 272.839 186.167 272.839 188.15C272.839 190.017 273.155 191.483 273.789 192.55C274.422 193.6 275.547 194.125 277.164 194.125ZM288.973 196V182.3L286.373 182.75V180.475L291.673 179.65V196H288.973ZM294.356 196V194.65C294.79 193.633 295.39 192.717 296.156 191.9C296.94 191.083 297.773 190.292 298.656 189.525C299.323 188.942 299.873 188.45 300.306 188.05C300.756 187.633 301.106 187.258 301.356 186.925C301.606 186.592 301.781 186.25 301.881 185.9C301.981 185.533 302.031 185.108 302.031 184.625C302.031 183.758 301.781 183.1 301.281 182.65C300.781 182.2 299.948 181.975 298.781 181.975C298.148 181.975 297.498 182.042 296.831 182.175C296.181 182.308 295.556 182.492 294.956 182.725V180.325C295.54 180.125 296.231 179.967 297.031 179.85C297.831 179.717 298.59 179.65 299.306 179.65C301.106 179.65 302.465 180.092 303.381 180.975C304.298 181.858 304.756 183.067 304.756 184.6C304.756 185.367 304.623 186.05 304.356 186.65C304.09 187.233 303.723 187.792 303.256 188.325C302.79 188.842 302.248 189.375 301.631 189.925C300.865 190.592 300.14 191.242 299.456 191.875C298.79 192.492 298.248 193.167 297.831 193.9H304.931V196H294.356ZM323.174 196.25C322.691 196.25 322.158 196.217 321.574 196.15C320.991 196.1 320.433 196.017 319.899 195.9C319.383 195.783 318.949 195.658 318.599 195.525V193.15C319.266 193.417 319.949 193.617 320.649 193.75C321.366 193.867 322.083 193.925 322.799 193.925C324.099 193.925 325.066 193.733 325.699 193.35C326.333 192.967 326.649 192.292 326.649 191.325C326.649 190.458 326.358 189.833 325.774 189.45C325.208 189.067 324.391 188.875 323.324 188.875H320.899L321.124 186.85H323.149C325.266 186.85 326.324 186.017 326.324 184.35C326.324 183.533 326.041 182.933 325.474 182.55C324.924 182.167 324.033 181.975 322.799 181.975C322.116 181.975 321.424 182.042 320.724 182.175C320.041 182.308 319.433 182.492 318.899 182.725V180.4C319.399 180.2 320.049 180.025 320.849 179.875C321.649 179.725 322.441 179.65 323.224 179.65C325.191 179.65 326.649 180.067 327.599 180.9C328.566 181.733 329.049 182.8 329.049 184.1C329.049 184.9 328.849 185.65 328.449 186.35C328.066 187.05 327.458 187.55 326.624 187.85C327.591 188.1 328.291 188.55 328.724 189.2C329.174 189.85 329.399 190.617 329.399 191.5C329.399 193.117 328.833 194.317 327.699 195.1C326.566 195.867 325.058 196.25 323.174 196.25ZM339.113 196V192.475H331.063V190.55L339.438 179.9H341.813V190.275H343.463V192.475H341.813V196H339.113ZM333.713 190.35H339.538V183L333.713 190.35ZM349.688 196.25C348.971 196.25 348.188 196.192 347.338 196.075C346.488 195.958 345.779 195.775 345.213 195.525V193.15C345.796 193.4 346.463 193.592 347.213 193.725C347.963 193.858 348.671 193.925 349.338 193.925C350.621 193.925 351.563 193.708 352.163 193.275C352.779 192.825 353.088 192.092 353.088 191.075C353.088 190.142 352.871 189.45 352.438 189C352.004 188.55 351.154 188.325 349.888 188.325H345.138V186.675L345.563 179.9H354.713L354.488 182H347.863L347.588 186.225H350.312C352.229 186.225 353.629 186.633 354.513 187.45C355.396 188.267 355.838 189.492 355.838 191.125C355.838 192.708 355.321 193.958 354.288 194.875C353.254 195.792 351.721 196.25 349.688 196.25ZM364.104 196.25C362.087 196.25 360.562 195.75 359.529 194.75C358.512 193.75 358.004 192.175 358.004 190.025V186.4C358.004 185.067 358.279 183.892 358.829 182.875C359.379 181.858 360.162 181.067 361.179 180.5C362.195 179.933 363.404 179.65 364.804 179.65C365.62 179.65 366.329 179.7 366.929 179.8C367.545 179.9 368.112 180.042 368.629 180.225V182.55C368.112 182.367 367.554 182.225 366.954 182.125C366.37 182.025 365.712 181.975 364.979 181.975C363.479 181.975 362.37 182.333 361.654 183.05C360.937 183.75 360.579 184.692 360.579 185.875V186.875C361.162 186.442 361.829 186.125 362.579 185.925C363.345 185.708 364.037 185.6 364.654 185.6C366.537 185.6 367.929 186.058 368.829 186.975C369.729 187.892 370.179 189.192 370.179 190.875C370.179 192.475 369.687 193.775 368.704 194.775C367.72 195.758 366.187 196.25 364.104 196.25ZM364.129 194.2C365.329 194.2 366.229 193.908 366.829 193.325C367.429 192.742 367.729 191.958 367.729 190.975C367.729 189.942 367.479 189.142 366.979 188.575C366.495 187.992 365.587 187.7 364.254 187.7C363.587 187.7 362.929 187.817 362.279 188.05C361.645 188.267 361.079 188.558 360.579 188.925V190.65C360.579 193.017 361.762 194.2 364.129 194.2Z" fill="#BFAFF2"/>
</g>
<rect x="67" y="131" width="371" height="219" rx="10" fill="#D9D9D9"/>
<path d="M296 131C296 141.609 291.47 151.783 283.406 159.284C275.342 166.786 264.404 171 253 171C241.596 171 230.658 166.786 222.594 159.284C214.53 151.783 210 141.609 210 131L253 131H296Z" fill="#5E93CA"/>
<path d="M98.11 195V192.9L107.83 179.04H98.59V175.68H113.11V178.14L103.48 191.88H113.26V195H98.11ZM115.483 195V191.97H118.783V195H115.483Z" fill="#0C0101"/>
<path d="M98.425 241V224.9H105.975C107.242 224.9 108.275 225.142 109.075 225.625C109.892 226.108 110.5 226.767 110.9 227.6C111.3 228.433 111.5 229.383 111.5 230.45C111.5 231.533 111.267 232.492 110.8 233.325C110.35 234.158 109.7 234.808 108.85 235.275C108.017 235.725 107.025 235.95 105.875 235.95H101.8V241H98.425ZM101.8 233.275H105.175C106.142 233.275 106.867 233.025 107.35 232.525C107.85 232.008 108.1 231.317 108.1 230.45C108.1 229.517 107.867 228.808 107.4 228.325C106.933 227.825 106.233 227.575 105.3 227.575H101.8V233.275ZM113.366 241V229.15H116.491L116.641 230.375C117.175 230.042 117.833 229.742 118.616 229.475C119.416 229.192 120.2 229 120.966 228.9V231.45C120.516 231.517 120.025 231.617 119.491 231.75C118.958 231.883 118.45 232.033 117.966 232.2C117.483 232.367 117.075 232.542 116.741 232.725V241H113.366ZM123.518 226.975V224.325H127.193V226.975H123.518ZM123.793 241V231.65H122.018L122.318 229.15H127.168V241H123.793ZM130.041 241V229.15H133.166L133.291 230.3C133.858 229.867 134.475 229.525 135.141 229.275C135.825 229.025 136.558 228.9 137.341 228.9C138.175 228.9 138.816 229.025 139.266 229.275C139.733 229.525 140.091 229.883 140.341 230.35C140.891 229.917 141.516 229.567 142.216 229.3C142.933 229.033 143.775 228.9 144.741 228.9C146.108 228.9 147.116 229.258 147.766 229.975C148.416 230.675 148.741 231.75 148.741 233.2V241H145.416V233.575C145.416 232.792 145.25 232.233 144.916 231.9C144.583 231.55 144.05 231.375 143.316 231.375C142.316 231.375 141.483 231.733 140.816 232.45C140.9 232.733 140.941 233.075 140.941 233.475V241H137.791V233.575C137.791 232.842 137.666 232.292 137.416 231.925C137.166 231.558 136.683 231.375 135.966 231.375C135.466 231.375 134.991 231.508 134.541 231.775C134.108 232.025 133.716 232.317 133.366 232.65V241H130.041ZM154.86 241.25C154.11 241.25 153.41 241.117 152.76 240.85C152.127 240.567 151.61 240.158 151.21 239.625C150.827 239.075 150.635 238.392 150.635 237.575C150.635 236.408 151.043 235.475 151.86 234.775C152.693 234.075 153.918 233.725 155.535 233.725H159.035V233.4C159.035 232.667 158.827 232.15 158.41 231.85C158.01 231.55 157.193 231.4 155.96 231.4C154.61 231.4 153.31 231.608 152.06 232.025V229.65C152.61 229.433 153.277 229.258 154.06 229.125C154.86 228.975 155.727 228.9 156.66 228.9C158.443 228.9 159.818 229.267 160.785 230C161.768 230.717 162.26 231.875 162.26 233.475V241H159.335L159.16 239.925C158.693 240.342 158.118 240.667 157.435 240.9C156.752 241.133 155.893 241.25 154.86 241.25ZM155.785 239.025C156.535 239.025 157.185 238.9 157.735 238.65C158.285 238.4 158.718 238.083 159.035 237.7V235.825H155.61C154.293 235.825 153.635 236.367 153.635 237.45C153.635 238.5 154.352 239.025 155.785 239.025ZM164.978 241V229.15H168.103L168.253 230.375C168.786 230.042 169.444 229.742 170.228 229.475C171.028 229.192 171.811 229 172.578 228.9V231.45C172.128 231.517 171.636 231.617 171.103 231.75C170.569 231.883 170.061 232.033 169.578 232.2C169.094 232.367 168.686 232.542 168.353 232.725V241H164.978ZM176.525 245.4C176.008 245.4 175.55 245.367 175.15 245.3C174.75 245.25 174.358 245.15 173.975 245V242.625C174.258 242.725 174.517 242.792 174.75 242.825C175 242.858 175.25 242.875 175.5 242.875C176.183 242.875 176.708 242.717 177.075 242.4C177.458 242.083 177.842 241.55 178.225 240.8L172.925 229.15H176.45L179.925 237.2L183.375 229.15H186.875L182.2 240.175C181.767 241.208 181.292 242.117 180.775 242.9C180.275 243.7 179.683 244.317 179 244.75C178.317 245.183 177.492 245.4 176.525 245.4ZM202.1 241.25C199.4 241.25 197.334 240.525 195.9 239.075C194.467 237.608 193.75 235.617 193.75 233.1C193.75 230.433 194.442 228.358 195.825 226.875C197.225 225.392 199.309 224.65 202.075 224.65C203.042 224.65 203.909 224.725 204.675 224.875C205.459 225.008 206.192 225.2 206.875 225.45V228.4C205.459 227.817 203.942 227.525 202.325 227.525C200.492 227.525 199.175 227.983 198.375 228.9C197.575 229.817 197.175 231.217 197.175 233.1C197.175 236.633 198.909 238.4 202.375 238.4C203.159 238.4 203.934 238.333 204.7 238.2C205.467 238.05 206.2 237.833 206.9 237.55V240.525C206.217 240.742 205.484 240.917 204.7 241.05C203.934 241.183 203.067 241.25 202.1 241.25ZM212.965 241.25C212.215 241.25 211.515 241.117 210.865 240.85C210.232 240.567 209.715 240.158 209.315 239.625C208.932 239.075 208.74 238.392 208.74 237.575C208.74 236.408 209.149 235.475 209.965 234.775C210.799 234.075 212.024 233.725 213.64 233.725H217.14V233.4C217.14 232.667 216.932 232.15 216.515 231.85C216.115 231.55 215.299 231.4 214.065 231.4C212.715 231.4 211.415 231.608 210.165 232.025V229.65C210.715 229.433 211.382 229.258 212.165 229.125C212.965 228.975 213.832 228.9 214.765 228.9C216.549 228.9 217.924 229.267 218.89 230C219.874 230.717 220.365 231.875 220.365 233.475V241H217.44L217.265 239.925C216.799 240.342 216.224 240.667 215.54 240.9C214.857 241.133 213.999 241.25 212.965 241.25ZM213.89 239.025C214.64 239.025 215.29 238.9 215.84 238.65C216.39 238.4 216.824 238.083 217.14 237.7V235.825H213.715C212.399 235.825 211.74 236.367 211.74 237.45C211.74 238.5 212.457 239.025 213.89 239.025ZM223.083 241V229.15H226.208L226.358 230.375C226.892 230.042 227.55 229.742 228.333 229.475C229.133 229.192 229.917 229 230.683 228.9V231.45C230.233 231.517 229.742 231.617 229.208 231.75C228.675 231.883 228.167 232.033 227.683 232.2C227.2 232.367 226.792 232.542 226.458 232.725V241H223.083ZM236.871 241.25C235.821 241.25 234.879 241.067 234.046 240.7C233.229 240.317 232.588 239.7 232.121 238.85C231.654 237.983 231.421 236.842 231.421 235.425C231.421 234.008 231.679 232.817 232.196 231.85C232.713 230.883 233.404 230.15 234.271 229.65C235.138 229.15 236.088 228.9 237.121 228.9C238.421 228.9 239.529 229.2 240.446 229.8V224.15H243.821V241H240.921L240.721 239.9C240.204 240.35 239.638 240.692 239.021 240.925C238.421 241.142 237.704 241.25 236.871 241.25ZM237.796 238.775C238.846 238.775 239.729 238.417 240.446 237.7V232.3C239.746 231.683 238.929 231.375 237.996 231.375C235.896 231.375 234.846 232.725 234.846 235.425C234.846 236.692 235.104 237.567 235.621 238.05C236.138 238.533 236.863 238.775 237.796 238.775Z" fill="#230606"/>
<circle cx="370.5" cy="202.5" r="40.5" fill="#E96868"/>
<path d="M371.473 166L383.373 190.018L407.231 203.622L381.57 217.278L369.758 239.238L356.625 215.628L334 201.617L358.428 188.368L371.473 166Z" fill="#D9D9D9"/>
<path d="M133.675 287V273.3L131.075 273.75V271.475L136.375 270.65V287H133.675ZM139.058 287V285.65C139.492 284.633 140.092 283.717 140.858 282.9C141.642 282.083 142.475 281.292 143.358 280.525C144.025 279.942 144.575 279.45 145.008 279.05C145.458 278.633 145.808 278.258 146.058 277.925C146.308 277.592 146.483 277.25 146.583 276.9C146.683 276.533 146.733 276.108 146.733 275.625C146.733 274.758 146.483 274.1 145.983 273.65C145.483 273.2 144.65 272.975 143.483 272.975C142.85 272.975 142.2 273.042 141.533 273.175C140.883 273.308 140.258 273.492 139.658 273.725V271.325C140.242 271.125 140.933 270.967 141.733 270.85C142.533 270.717 143.292 270.65 144.008 270.65C145.808 270.65 147.167 271.092 148.083 271.975C149 272.858 149.458 274.067 149.458 275.6C149.458 276.367 149.325 277.05 149.058 277.65C148.792 278.233 148.425 278.792 147.958 279.325C147.492 279.842 146.95 280.375 146.333 280.925C145.567 281.592 144.842 282.242 144.158 282.875C143.492 283.492 142.95 284.167 142.533 284.9H149.633V287H139.058ZM156.353 287.25C155.87 287.25 155.336 287.217 154.753 287.15C154.17 287.1 153.611 287.017 153.078 286.9C152.561 286.783 152.128 286.658 151.778 286.525V284.15C152.445 284.417 153.128 284.617 153.828 284.75C154.545 284.867 155.261 284.925 155.978 284.925C157.278 284.925 158.245 284.733 158.878 284.35C159.511 283.967 159.828 283.292 159.828 282.325C159.828 281.458 159.536 280.833 158.953 280.45C158.386 280.067 157.57 279.875 156.503 279.875H154.078L154.303 277.85H156.328C158.445 277.85 159.503 277.017 159.503 275.35C159.503 274.533 159.22 273.933 158.653 273.55C158.103 273.167 157.211 272.975 155.978 272.975C155.295 272.975 154.603 273.042 153.903 273.175C153.22 273.308 152.611 273.492 152.078 273.725V271.4C152.578 271.2 153.228 271.025 154.028 270.875C154.828 270.725 155.62 270.65 156.403 270.65C158.37 270.65 159.828 271.067 160.778 271.9C161.745 272.733 162.228 273.8 162.228 275.1C162.228 275.9 162.028 276.65 161.628 277.35C161.245 278.05 160.636 278.55 159.803 278.85C160.77 279.1 161.47 279.55 161.903 280.2C162.353 280.85 162.578 281.617 162.578 282.5C162.578 284.117 162.011 285.317 160.878 286.1C159.745 286.867 158.236 287.25 156.353 287.25ZM172.292 287V283.475H164.242V281.55L172.617 270.9H174.992V281.275H176.642V283.475H174.992V287H172.292ZM166.892 281.35H172.717V274L166.892 281.35ZM194.39 287.25C193.673 287.25 192.89 287.192 192.04 287.075C191.19 286.958 190.481 286.775 189.915 286.525V284.15C190.498 284.4 191.165 284.592 191.915 284.725C192.665 284.858 193.373 284.925 194.04 284.925C195.323 284.925 196.265 284.708 196.865 284.275C197.481 283.825 197.79 283.092 197.79 282.075C197.79 281.142 197.573 280.45 197.14 280C196.706 279.55 195.856 279.325 194.59 279.325H189.84V277.675L190.265 270.9H199.415L199.19 273H192.565L192.29 277.225H195.015C196.931 277.225 198.331 277.633 199.215 278.45C200.098 279.267 200.54 280.492 200.54 282.125C200.54 283.708 200.023 284.958 198.99 285.875C197.956 286.792 196.423 287.25 194.39 287.25ZM208.806 287.25C206.789 287.25 205.264 286.75 204.231 285.75C203.214 284.75 202.706 283.175 202.706 281.025V277.4C202.706 276.067 202.981 274.892 203.531 273.875C204.081 272.858 204.864 272.067 205.881 271.5C206.898 270.933 208.106 270.65 209.506 270.65C210.323 270.65 211.031 270.7 211.631 270.8C212.248 270.9 212.814 271.042 213.331 271.225V273.55C212.814 273.367 212.256 273.225 211.656 273.125C211.073 273.025 210.414 272.975 209.681 272.975C208.181 272.975 207.073 273.333 206.356 274.05C205.639 274.75 205.281 275.692 205.281 276.875V277.875C205.864 277.442 206.531 277.125 207.281 276.925C208.048 276.708 208.739 276.6 209.356 276.6C211.239 276.6 212.631 277.058 213.531 277.975C214.431 278.892 214.881 280.192 214.881 281.875C214.881 283.475 214.389 284.775 213.406 285.775C212.423 286.758 210.889 287.25 208.806 287.25ZM208.831 285.2C210.031 285.2 210.931 284.908 211.531 284.325C212.131 283.742 212.431 282.958 212.431 281.975C212.431 280.942 212.181 280.142 211.681 279.575C211.198 278.992 210.289 278.7 208.956 278.7C208.289 278.7 207.631 278.817 206.981 279.05C206.348 279.267 205.781 279.558 205.281 279.925V281.65C205.281 284.017 206.464 285.2 208.831 285.2ZM218.712 287L224.637 273H216.787V270.9H227.562V272.65L221.487 287H218.712ZM235.788 287.25C231.588 287.25 229.488 285.717 229.488 282.65C229.488 281.733 229.73 280.917 230.213 280.2C230.713 279.483 231.421 278.975 232.338 278.675C231.505 278.358 230.896 277.892 230.513 277.275C230.13 276.642 229.938 275.967 229.938 275.25C229.938 273.867 230.413 272.758 231.363 271.925C232.33 271.075 233.805 270.65 235.788 270.65C237.821 270.65 239.305 271.075 240.238 271.925C241.171 272.758 241.638 273.867 241.638 275.25C241.638 276.017 241.446 276.733 241.063 277.4C240.696 278.05 240.046 278.55 239.113 278.9C240.146 279.2 240.896 279.667 241.363 280.3C241.83 280.917 242.063 281.7 242.063 282.65C242.063 285.717 239.971 287.25 235.788 287.25ZM236.463 278.05C237.38 277.817 238.046 277.5 238.463 277.1C238.896 276.7 239.113 276.1 239.113 275.3C239.113 273.633 238.005 272.8 235.788 272.8C234.705 272.8 233.88 273 233.313 273.4C232.746 273.8 232.463 274.433 232.463 275.3C232.463 276.617 233.205 277.417 234.688 277.7L236.463 278.05ZM235.788 285.125C237.038 285.125 237.971 284.925 238.588 284.525C239.221 284.108 239.538 283.467 239.538 282.6C239.538 281.817 239.313 281.25 238.863 280.9C238.43 280.533 237.755 280.258 236.838 280.075L234.788 279.65C233.938 279.833 233.263 280.142 232.763 280.575C232.263 280.992 232.013 281.65 232.013 282.55C232.013 283.45 232.33 284.108 232.963 284.525C233.613 284.925 234.555 285.125 235.788 285.125ZM261.133 287.25C260.316 287.25 259.608 287.2 259.008 287.1C258.408 287 257.841 286.867 257.308 286.7V284.35C257.824 284.55 258.374 284.7 258.958 284.8C259.558 284.9 260.224 284.95 260.958 284.95C262.458 284.95 263.566 284.592 264.283 283.875C264.999 283.158 265.358 282.208 265.358 281.025V280.025C264.774 280.442 264.108 280.758 263.358 280.975C262.608 281.192 261.916 281.3 261.283 281.3C259.416 281.3 258.024 280.842 257.108 279.925C256.208 279.008 255.758 277.708 255.758 276.025C255.758 274.442 256.249 273.15 257.233 272.15C258.216 271.15 259.749 270.65 261.833 270.65C263.849 270.65 265.366 271.158 266.383 272.175C267.416 273.175 267.933 274.742 267.933 276.875V280.5C267.933 281.833 267.658 283.008 267.108 284.025C266.558 285.042 265.774 285.833 264.758 286.4C263.741 286.967 262.533 287.25 261.133 287.25ZM261.683 279.225C262.366 279.225 263.024 279.108 263.658 278.875C264.291 278.642 264.858 278.35 265.358 278V276.25C265.358 273.9 264.174 272.725 261.808 272.725C260.608 272.725 259.708 273.017 259.108 273.6C258.508 274.183 258.208 274.967 258.208 275.95C258.208 276.967 258.449 277.767 258.933 278.35C259.433 278.933 260.349 279.225 261.683 279.225ZM277.164 287.45C275.464 287.45 274.097 287.125 273.064 286.475C272.03 285.808 271.272 284.858 270.789 283.625C270.322 282.375 270.089 280.883 270.089 279.15C270.089 277.35 270.314 275.817 270.764 274.55C271.23 273.283 271.98 272.317 273.014 271.65C274.047 270.983 275.43 270.65 277.164 270.65C278.897 270.65 280.272 270.983 281.289 271.65C282.322 272.317 283.064 273.283 283.514 274.55C283.98 275.817 284.214 277.35 284.214 279.15C284.214 280.883 283.98 282.375 283.514 283.625C283.047 284.858 282.297 285.808 281.264 286.475C280.23 287.125 278.864 287.45 277.164 287.45ZM277.164 285.125C278.764 285.125 279.88 284.6 280.514 283.55C281.147 282.483 281.464 281.017 281.464 279.15C281.464 277.167 281.155 275.642 280.539 274.575C279.922 273.508 278.797 272.975 277.164 272.975C275.53 272.975 274.397 273.508 273.764 274.575C273.147 275.642 272.839 277.167 272.839 279.15C272.839 281.017 273.155 282.483 273.789 283.55C274.422 284.6 275.547 285.125 277.164 285.125ZM288.973 287V273.3L286.373 273.75V271.475L291.673 270.65V287H288.973ZM294.356 287V285.65C294.79 284.633 295.39 283.717 296.156 282.9C296.94 282.083 297.773 281.292 298.656 280.525C299.323 279.942 299.873 279.45 300.306 279.05C300.756 278.633 301.106 278.258 301.356 277.925C301.606 277.592 301.781 277.25 301.881 276.9C301.981 276.533 302.031 276.108 302.031 275.625C302.031 274.758 301.781 274.1 301.281 273.65C300.781 273.2 299.948 272.975 298.781 272.975C298.148 272.975 297.498 273.042 296.831 273.175C296.181 273.308 295.556 273.492 294.956 273.725V271.325C295.54 271.125 296.231 270.967 297.031 270.85C297.831 270.717 298.59 270.65 299.306 270.65C301.106 270.65 302.465 271.092 303.381 271.975C304.298 272.858 304.756 274.067 304.756 275.6C304.756 276.367 304.623 277.05 304.356 277.65C304.09 278.233 303.723 278.792 303.256 279.325C302.79 279.842 302.248 280.375 301.631 280.925C300.865 281.592 300.14 282.242 299.456 282.875C298.79 283.492 298.248 284.167 297.831 284.9H304.931V287H294.356ZM323.174 287.25C322.691 287.25 322.158 287.217 321.574 287.15C320.991 287.1 320.433 287.017 319.899 286.9C319.383 286.783 318.949 286.658 318.599 286.525V284.15C319.266 284.417 319.949 284.617 320.649 284.75C321.366 284.867 322.083 284.925 322.799 284.925C324.099 284.925 325.066 284.733 325.699 284.35C326.333 283.967 326.649 283.292 326.649 282.325C326.649 281.458 326.358 280.833 325.774 280.45C325.208 280.067 324.391 279.875 323.324 279.875H320.899L321.124 277.85H323.149C325.266 277.85 326.324 277.017 326.324 275.35C326.324 274.533 326.041 273.933 325.474 273.55C324.924 273.167 324.033 272.975 322.799 272.975C322.116 272.975 321.424 273.042 320.724 273.175C320.041 273.308 319.433 273.492 318.899 273.725V271.4C319.399 271.2 320.049 271.025 320.849 270.875C321.649 270.725 322.441 270.65 323.224 270.65C325.191 270.65 326.649 271.067 327.599 271.9C328.566 272.733 329.049 273.8 329.049 275.1C329.049 275.9 328.849 276.65 328.449 277.35C328.066 278.05 327.458 278.55 326.624 278.85C327.591 279.1 328.291 279.55 328.724 280.2C329.174 280.85 329.399 281.617 329.399 282.5C329.399 284.117 328.833 285.317 327.699 286.1C326.566 286.867 325.058 287.25 323.174 287.25ZM339.113 287V283.475H331.063V281.55L339.438 270.9H341.813V281.275H343.463V283.475H341.813V287H339.113ZM333.713 281.35H339.538V274L333.713 281.35ZM349.688 287.25C348.971 287.25 348.188 287.192 347.338 287.075C346.488 286.958 345.779 286.775 345.213 286.525V284.15C345.796 284.4 346.463 284.592 347.213 284.725C347.963 284.858 348.671 284.925 349.338 284.925C350.621 284.925 351.563 284.708 352.163 284.275C352.779 283.825 353.088 283.092 353.088 282.075C353.088 281.142 352.871 280.45 352.438 280C352.004 279.55 351.154 279.325 349.888 279.325H345.138V277.675L345.563 270.9H354.713L354.488 273H347.863L347.588 277.225H350.312C352.229 277.225 353.629 277.633 354.513 278.45C355.396 279.267 355.838 280.492 355.838 282.125C355.838 283.708 355.321 284.958 354.288 285.875C353.254 286.792 351.721 287.25 349.688 287.25ZM364.104 287.25C362.087 287.25 360.562 286.75 359.529 285.75C358.512 284.75 358.004 283.175 358.004 281.025V277.4C358.004 276.067 358.279 274.892 358.829 273.875C359.379 272.858 360.162 272.067 361.179 271.5C362.195 270.933 363.404 270.65 364.804 270.65C365.62 270.65 366.329 270.7 366.929 270.8C367.545 270.9 368.112 271.042 368.629 271.225V273.55C368.112 273.367 367.554 273.225 366.954 273.125C366.37 273.025 365.712 272.975 364.979 272.975C363.479 272.975 362.37 273.333 361.654 274.05C360.937 274.75 360.579 275.692 360.579 276.875V277.875C361.162 277.442 361.829 277.125 362.579 276.925C363.345 276.708 364.037 276.6 364.654 276.6C366.537 276.6 367.929 277.058 368.829 277.975C369.729 278.892 370.179 280.192 370.179 281.875C370.179 283.475 369.687 284.775 368.704 285.775C367.72 286.758 366.187 287.25 364.104 287.25ZM364.129 285.2C365.329 285.2 366.229 284.908 366.829 284.325C367.429 283.742 367.729 282.958 367.729 281.975C367.729 280.942 367.479 280.142 366.979 279.575C366.495 278.992 365.587 278.7 364.254 278.7C363.587 278.7 362.929 278.817 362.279 279.05C361.645 279.267 361.079 279.558 360.579 279.925V281.65C360.579 284.017 361.762 285.2 364.129 285.2Z" fill="#988A8A"/>
<path d="M14 213H491V362C491 386.853 470.853 407 446 407H59C34.1472 407 14 386.853 14 362V213Z" fill="#444444"/>
<path d="M157.04 277V274.84L164.936 261.448H157.16V259.48H167.12V261.64L159.224 275.032H167.36V277H157.04ZM176.591 277.24C175.551 277.24 174.639 277.032 173.855 276.616C173.087 276.2 172.487 275.616 172.055 274.864C171.639 274.096 171.431 273.208 171.431 272.2V268.6C171.431 267.576 171.639 266.688 172.055 265.936C172.487 265.184 173.087 264.6 173.855 264.184C174.639 263.768 175.551 263.56 176.591 263.56C177.631 263.56 178.535 263.768 179.303 264.184C180.087 264.6 180.687 265.184 181.103 265.936C181.535 266.688 181.751 267.576 181.751 268.6V270.928H173.543V272.2C173.543 273.24 173.807 274.04 174.335 274.6C174.863 275.144 175.615 275.416 176.591 275.416C177.423 275.416 178.095 275.272 178.607 274.984C179.119 274.68 179.431 274.232 179.543 273.64H181.703C181.559 274.744 181.015 275.624 180.071 276.28C179.143 276.92 177.983 277.24 176.591 277.24ZM179.639 269.488V268.6C179.639 267.56 179.375 266.76 178.847 266.2C178.335 265.64 177.583 265.36 176.591 265.36C175.615 265.36 174.863 265.64 174.335 266.2C173.807 266.76 173.543 267.56 173.543 268.6V269.296H179.807L179.639 269.488ZM185.989 277V263.8H188.149V266.32H188.605L188.149 266.824C188.149 265.784 188.461 264.984 189.085 264.424C189.709 263.848 190.573 263.56 191.677 263.56C193.005 263.56 194.061 263.968 194.845 264.784C195.629 265.6 196.021 266.712 196.021 268.12V277H193.861V268.36C193.861 267.416 193.605 266.696 193.093 266.2C192.597 265.688 191.917 265.432 191.053 265.432C190.157 265.432 189.445 265.704 188.917 266.248C188.405 266.792 188.149 267.576 188.149 268.6V277H185.989ZM200.212 277V275.032H204.892V265.768H200.812V263.8H207.052V275.032H211.492V277H200.212ZM205.732 261.424C205.204 261.424 204.788 261.288 204.484 261.016C204.18 260.744 204.028 260.376 204.028 259.912C204.028 259.432 204.18 259.056 204.484 258.784C204.788 258.496 205.204 258.352 205.732 258.352C206.26 258.352 206.676 258.496 206.98 258.784C207.284 259.056 207.436 259.432 207.436 259.912C207.436 260.376 207.284 260.744 206.98 261.016C206.676 261.288 206.26 261.424 205.732 261.424ZM221.203 277C220.067 277 219.179 276.696 218.539 276.088C217.915 275.48 217.603 274.624 217.603 273.52V265.768H213.883V263.8H217.603V260.08H219.763V263.8H225.043V265.768H219.763V273.52C219.763 274.528 220.243 275.032 221.203 275.032H224.803V277H221.203ZM229.161 277V259.48H231.321V263.8V266.32H231.777L231.321 266.824C231.321 265.784 231.633 264.984 232.257 264.424C232.881 263.848 233.745 263.56 234.849 263.56C236.177 263.56 237.233 263.968 238.017 264.784C238.801 265.6 239.193 266.712 239.193 268.12V277H237.033V268.36C237.033 267.416 236.777 266.688 236.265 266.176C235.769 265.648 235.089 265.384 234.225 265.384C233.329 265.384 232.617 265.664 232.089 266.224C231.577 266.784 231.321 267.576 231.321 268.6V277H229.161ZM257.966 277V259.48H262.934C264.534 259.48 265.782 259.88 266.678 260.68C267.59 261.48 268.046 262.592 268.046 264.016C268.046 264.816 267.878 265.512 267.542 266.104C267.206 266.696 266.726 267.152 266.102 267.472C265.494 267.792 264.758 267.944 263.894 267.928V267.568C264.822 267.552 265.622 267.728 266.294 268.096C266.982 268.464 267.51 268.992 267.878 269.68C268.262 270.368 268.454 271.184 268.454 272.128C268.454 273.12 268.246 273.984 267.83 274.72C267.414 275.456 266.822 276.024 266.054 276.424C265.286 276.808 264.366 277 263.294 277H257.966ZM260.078 275.056H263.054C264.062 275.056 264.854 274.792 265.43 274.264C266.022 273.72 266.318 272.984 266.318 272.056C266.318 271.096 266.022 270.32 265.43 269.728C264.854 269.12 264.062 268.816 263.054 268.816H260.078V275.056ZM260.078 266.944H262.91C263.838 266.944 264.566 266.696 265.094 266.2C265.638 265.704 265.91 265.032 265.91 264.184C265.91 263.336 265.646 262.664 265.118 262.168C264.59 261.672 263.862 261.424 262.934 261.424H260.078V266.944ZM276.173 277.24C274.781 277.24 273.685 276.888 272.885 276.184C272.085 275.464 271.685 274.496 271.685 273.28C271.685 272.048 272.085 271.08 272.885 270.376C273.685 269.672 274.765 269.32 276.125 269.32H280.205V268C280.205 267.184 279.957 266.56 279.461 266.128C278.981 265.68 278.293 265.456 277.397 265.456C276.613 265.456 275.957 265.624 275.429 265.96C274.901 266.28 274.597 266.72 274.517 267.28H272.357C272.501 266.144 273.037 265.24 273.965 264.568C274.893 263.896 276.053 263.56 277.445 263.56C278.965 263.56 280.165 263.952 281.045 264.736C281.925 265.52 282.365 266.584 282.365 267.928V277H280.253V274.48H279.893L280.253 274.12C280.253 275.08 279.877 275.84 279.125 276.4C278.389 276.96 277.405 277.24 276.173 277.24ZM276.701 275.536C277.725 275.536 278.565 275.28 279.221 274.768C279.877 274.256 280.205 273.6 280.205 272.8V270.928H276.173C275.453 270.928 274.885 271.128 274.469 271.528C274.053 271.928 273.845 272.472 273.845 273.16C273.845 273.896 274.093 274.48 274.589 274.912C275.101 275.328 275.805 275.536 276.701 275.536ZM286.724 277V263.8H288.884V266.32H289.34L288.884 266.824C288.884 265.784 289.196 264.984 289.82 264.424C290.444 263.848 291.308 263.56 292.412 263.56C293.74 263.56 294.796 263.968 295.58 264.784C296.364 265.6 296.756 266.712 296.756 268.12V277H294.596V268.36C294.596 267.416 294.34 266.696 293.828 266.2C293.332 265.688 292.652 265.432 291.788 265.432C290.892 265.432 290.18 265.704 289.652 266.248C289.14 266.792 288.884 267.576 288.884 268.6V277H286.724ZM301.186 277V259.48H303.346V269.248H305.89L309.73 263.8H312.202L307.762 270.088L312.274 277H309.754L305.914 271.12H303.346V277H301.186ZM315.337 277V275.032H320.017V265.768H315.937V263.8H322.177V275.032H326.617V277H315.337ZM320.857 261.424C320.329 261.424 319.913 261.288 319.609 261.016C319.305 260.744 319.153 260.376 319.153 259.912C319.153 259.432 319.305 259.056 319.609 258.784C319.913 258.496 320.329 258.352 320.857 258.352C321.385 258.352 321.801 258.496 322.105 258.784C322.409 259.056 322.561 259.432 322.561 259.912C322.561 260.376 322.409 260.744 322.105 261.016C321.801 261.288 321.385 261.424 320.857 261.424ZM329.896 277V263.8H332.056V266.32H332.512L332.056 266.824C332.056 265.784 332.368 264.984 332.992 264.424C333.616 263.848 334.48 263.56 335.584 263.56C336.912 263.56 337.968 263.968 338.752 264.784C339.536 265.6 339.928 266.712 339.928 268.12V277H337.768V268.36C337.768 267.416 337.512 266.696 337 266.2C336.504 265.688 335.824 265.432 334.96 265.432C334.064 265.432 333.352 265.704 332.824 266.248C332.312 266.792 332.056 267.576 332.056 268.6V277H329.896ZM345.942 281.32V279.352H350.142C350.814 279.352 351.302 279.2 351.606 278.896C351.926 278.592 352.086 278.12 352.086 277.48V275.8L352.134 273.4H351.702L352.11 273.04C352.11 274 351.79 274.76 351.15 275.32C350.51 275.88 349.654 276.16 348.582 276.16C347.222 276.16 346.15 275.72 345.366 274.84C344.582 273.944 344.19 272.744 344.19 271.24V268.456C344.19 266.952 344.582 265.76 345.366 264.88C346.15 264 347.222 263.56 348.582 263.56C349.654 263.56 350.51 263.84 351.15 264.4C351.79 264.96 352.11 265.72 352.11 266.68L351.702 266.32H352.11V263.8H354.246V277.48C354.246 278.664 353.878 279.6 353.142 280.288C352.422 280.976 351.414 281.32 350.118 281.32H345.942ZM349.23 274.288C350.126 274.288 350.83 274.008 351.342 273.448C351.854 272.888 352.11 272.112 352.11 271.12V268.6C352.11 267.608 351.854 266.832 351.342 266.272C350.83 265.712 350.126 265.432 349.23 265.432C348.318 265.432 347.606 265.704 347.094 266.248C346.598 266.792 346.35 267.576 346.35 268.6V271.12C346.35 272.144 346.598 272.928 347.094 273.472C347.606 274.016 348.318 274.288 349.23 274.288Z" fill="#F5F5F0"/>
<path d="M182.28 350L189 338.16L182.632 326.64H185.96L189.576 333.552C189.768 333.915 189.96 334.309 190.152 334.736C190.365 335.141 190.536 335.461 190.664 335.696C190.771 335.461 190.92 335.141 191.112 334.736C191.325 334.309 191.528 333.915 191.72 333.552L195.4 326.64H198.568L192.2 337.968L198.92 350H195.624L191.624 342.576C191.432 342.213 191.229 341.829 191.016 341.424C190.824 340.997 190.675 340.656 190.568 340.4C190.461 340.656 190.301 340.987 190.088 341.392C189.896 341.797 189.704 342.181 189.512 342.544L185.48 350H182.28Z" fill="#B198ED"/>
<path d="M203.676 350L200.988 326.64H203.74L205.5 343.92C205.542 344.389 205.585 344.88 205.628 345.392C205.67 345.883 205.702 346.352 205.724 346.8C205.766 347.248 205.788 347.621 205.788 347.92C205.83 347.621 205.862 347.248 205.884 346.8C205.926 346.352 205.969 345.883 206.012 345.392C206.076 344.88 206.14 344.389 206.204 343.92L208.38 326.64H211.356L213.34 343.92C213.404 344.389 213.457 344.88 213.5 345.392C213.564 345.883 213.617 346.352 213.66 346.8C213.724 347.248 213.766 347.621 213.788 347.92C213.809 347.621 213.83 347.248 213.852 346.8C213.894 346.352 213.937 345.883 213.98 345.392C214.044 344.88 214.097 344.389 214.14 343.92L215.964 326.64H218.588L215.836 350H212.22L210.236 332.4C210.193 331.909 210.14 331.429 210.076 330.96C210.033 330.491 209.99 330.053 209.948 329.648C209.905 329.243 209.873 328.912 209.852 328.656C209.83 328.912 209.788 329.243 209.724 329.648C209.681 330.053 209.638 330.491 209.595 330.96C209.553 331.429 209.5 331.909 209.436 332.4L207.292 350H203.676ZM227.439 350.32C225.583 350.32 224.122 349.851 223.055 348.912C221.988 347.952 221.455 346.661 221.455 345.04C221.455 343.397 221.988 342.107 223.055 341.168C224.122 340.229 225.562 339.76 227.375 339.76H232.815V338C232.815 336.912 232.484 336.08 231.823 335.504C231.183 334.907 230.266 334.608 229.071 334.608C228.026 334.608 227.151 334.832 226.447 335.28C225.743 335.707 225.338 336.293 225.231 337.04H222.351C222.543 335.525 223.258 334.32 224.495 333.424C225.732 332.528 227.279 332.08 229.135 332.08C231.162 332.08 232.762 332.603 233.935 333.648C235.108 334.693 235.695 336.112 235.695 337.904V350H232.879V346.64H232.399L232.879 346.16C232.879 347.44 232.378 348.453 231.375 349.2C230.394 349.947 229.082 350.32 227.439 350.32ZM228.143 348.048C229.508 348.048 230.628 347.707 231.503 347.024C232.378 346.341 232.815 345.467 232.815 344.4V341.904H227.439C226.479 341.904 225.722 342.171 225.167 342.704C224.612 343.237 224.335 343.963 224.335 344.88C224.335 345.861 224.666 346.64 225.327 347.216C226.01 347.771 226.948 348.048 228.143 348.048ZM250.563 350C249.539 350 248.643 349.797 247.875 349.392C247.107 348.987 246.509 348.411 246.083 347.664C245.656 346.917 245.443 346.043 245.443 345.04V329.264H239.523V326.64H248.323V345.04C248.323 345.765 248.525 346.341 248.931 346.768C249.336 347.173 249.88 347.376 250.563 347.376H256.163V350H250.563ZM269.75 350C268.726 350 267.83 349.797 267.062 349.392C266.294 348.987 265.697 348.411 265.27 347.664C264.843 346.917 264.63 346.043 264.63 345.04V329.264H258.71V326.64H267.51V345.04C267.51 345.765 267.713 346.341 268.118 346.768C268.523 347.173 269.067 347.376 269.75 347.376H275.35V350H269.75ZM286.538 350.32C285.151 350.32 283.935 350.043 282.89 349.488C281.866 348.933 281.066 348.155 280.49 347.152C279.935 346.128 279.658 344.944 279.658 343.6V338.8C279.658 337.435 279.935 336.251 280.49 335.248C281.066 334.245 281.866 333.467 282.89 332.912C283.935 332.357 285.151 332.08 286.538 332.08C287.924 332.08 289.13 332.357 290.154 332.912C291.199 333.467 291.999 334.245 292.554 335.248C293.13 336.251 293.418 337.435 293.418 338.8V341.904H282.474V343.6C282.474 344.987 282.826 346.053 283.53 346.8C284.234 347.525 285.236 347.888 286.538 347.888C287.647 347.888 288.543 347.696 289.226 347.312C289.908 346.907 290.324 346.309 290.474 345.52H293.354C293.162 346.992 292.436 348.165 291.178 349.04C289.94 349.893 288.394 350.32 286.538 350.32ZM290.602 339.984V338.8C290.602 337.413 290.25 336.347 289.546 335.6C288.863 334.853 287.86 334.48 286.538 334.48C285.236 334.48 284.234 334.853 283.53 335.6C282.826 336.347 282.474 337.413 282.474 338.8V339.728H290.826L290.602 339.984ZM307.645 350C306.13 350 304.946 349.595 304.093 348.784C303.261 347.973 302.845 346.832 302.845 345.36V335.024H297.885V332.4H302.845V327.44H305.725V332.4H312.765V335.024H305.725V345.36C305.725 346.704 306.365 347.376 307.645 347.376H312.445V350H307.645Z" fill="white"/>
</g>
<defs>
<filter id="filter0_d_2001_3" x="0" y="26" width="491" height="381" filterUnits="userSpaceOnUse" color-interpolation-filters="sRGB">
<feFlood flood-opacity="0" result="BackgroundImageFix"/>
<feColorMatrix in="SourceAlpha" type="matrix" values="0 0 0 0 0 0 0 0 0 0 0 0 0 0 0 0 0 0 127 0" result="hardAlpha"/>
<feOffset dx="-10" dy="-10"/>
<feGaussianBlur stdDeviation="2"/>
<feComposite in2="hardAlpha" operator="out"/>
<feColorMatrix type="matrix" values="0 0 0 0 0 0 0 0 0 0 0 0 0 0 0 0 0 0 0.25 0"/>
<feBlend mode="normal" in2="BackgroundImageFix" result="effect1_dropShadow_2001_3"/>
<feBlend mode="normal" in="SourceGraphic" in2="effect1_dropShadow_2001_3" result="shape"/>
</filter>
<filter id="filter1_d_2001_3" x="53" y="40" width="385" height="233" filterUnits="userSpaceOnUse" color-interpolation-filters="sRGB">
<feFlood flood-opacity="0" result="BackgroundImageFix"/>
<feColorMatrix in="SourceAlpha" type="matrix" values="0 0 0 0 0 0 0 0 0 0 0 0 0 0 0 0 0 0 127 0" result="hardAlpha"/>
<feOffset dx="-10" dy="10"/>
<feGaussianBlur stdDeviation="2"/>
<feComposite in2="hardAlpha" operator="out"/>
<feColorMatrix type="matrix" values="0 0 0 0 0 0 0 0 0 0 0 0 0 0 0 0 0 0 0.25 0"/>
<feBlend mode="normal" in2="BackgroundImageFix" result="effect1_dropShadow_2001_3"/>
<feBlend mode="normal" in="SourceGraphic" in2="effect1_dropShadow_2001_3" result="shape"/>
</filter>
<filter id="filter2_d_2001_3" x="63" y="40" width="379" height="227" filterUnits="userSpaceOnUse" color-interpolation-filters="sRGB">
<feFlood flood-opacity="0" result="BackgroundImageFix"/>
<feColorMatrix in="SourceAlpha" type="matrix" values="0 0 0 0 0 0 0 0 0 0 0 0 0 0 0 0 0 0 127 0" result="hardAlpha"/>
<feOffset dy="4"/>
<feGaussianBlur stdDeviation="2"/>
<feComposite in2="hardAlpha" operator="out"/>
<feColorMatrix type="matrix" values="0 0 0 0 0 0 0 0 0 0 0 0 0 0 0 0 0 0 0.25 0"/>
<feBlend mode="normal" in2="BackgroundImageFix" result="effect1_dropShadow_2001_3"/>
<feBlend mode="normal" in="SourceGraphic" in2="effect1_dropShadow_2001_3" result="shape"/>
</filter>
<filter id="filter3_b_2001_3" x="275.96" y="131.36" width="50.2014" height="23.36" filterUnits="userSpaceOnUse" color-interpolation-filters="sRGB">
<feFlood flood-opacity="0" result="BackgroundImageFix"/>
<feGaussianBlur in="BackgroundImageFix" stdDeviation="2"/>
<feComposite in2="SourceAlpha" operator="in" result="effect1_backgroundBlur_2001_3"/>
<feBlend mode="normal" in="SourceGraphic" in2="effect1_backgroundBlur_2001_3" result="shape"/>
</filter>
</defs>
</svg>
